<?xml version="1.0" standalone="no"?><!DOCTYPE svg PUBLIC "-//W3C//DTD SVG 1.1//EN" "http://www.w3.org/Graphics/SVG/1.1/DTD/svg11.dtd"><svg t="1582860677149" class="icon" viewBox="0 0 1024 1024" version="1.1" xmlns="http://www.w3.org/2000/svg" p-id="5595" xmlns:xlink="http://www.w3.org/1999/xlink" width="200" height="200"><defs><style type="text/css"></style></defs><path d="M369.777778 284.444444H284.444444V227.555556h85.333334c17.066667 0 28.444444-11.377778 28.444444-28.444445S386.844444 170.666667 369.777778 170.666667h-39.822222l45.511111-45.511111c11.377778-11.377778 11.377778-28.444444 0-39.822223s-28.444444-11.377778-39.822223 0L256 164.977778 176.355556 85.333333c-11.377778-11.377778-28.444444-11.377778-39.822223 0s-11.377778 28.444444 0 39.822223l45.511111 45.511111h-39.822222c-17.066667 0-28.444444 11.377778-28.444444 28.444444s11.377778 28.444444 28.444444 28.444445H227.555556v56.888888H142.222222c-17.066667 0-28.444444 11.377778-28.444444 28.444445s11.377778 28.444444 28.444444 28.444444H227.555556v85.333334c0 17.066667 11.377778 28.444444 28.444444 28.444444s28.444444-11.377778 28.444444-28.444444V341.333333h85.333334c17.066667 0 28.444444-11.377778 28.444444-28.444444S386.844444 284.444444 369.777778 284.444444zM813.511111 728.177778c-5.688889-11.377778-11.377778-22.755556-22.755555-28.444445l-34.133334-17.066666c-5.688889 0-17.066667-5.688889-22.755555-5.688889v-96.711111c5.688889 0 11.377778 5.688889 17.066666 11.377777 5.688889 5.688889 11.377778 22.755556 11.377778 34.133334h51.2c0-17.066667 0-28.444444-5.688889-39.822222s-11.377778-22.755556-22.755555-28.444445-17.066667-11.377778-34.133334-17.066667c-5.688889 0-11.377778 0-22.755555-5.688888v-34.133334c0-17.066667-11.377778-28.444444-28.444445-28.444444s-28.444444 11.377778-28.444444 28.444444v34.133334c-5.688889 0-11.377778 0-17.066667 5.688888l-34.133333 17.066667c-11.377778 5.688889-17.066667 17.066667-22.755556 28.444445-5.688889 11.377778-5.688889 22.755556-5.688889 39.822222 0 17.066667 5.688889 28.444444 11.377778 39.822222 5.688889 11.377778 11.377778 22.755556 22.755556 28.444444l34.133333 17.066667c5.688889 0 11.377778 5.688889 17.066667 5.688889v113.777778c-11.377778-5.688889-17.066667-5.688889-22.755556-17.066667-11.377778-11.377778-11.377778-28.444444-11.377778-45.511111h-51.2c0 17.066667 0 34.133333 5.688889 45.511111 5.688889 11.377778 11.377778 22.755556 22.755556 34.133333 11.377778 11.377778 22.755556 17.066667 34.133333 22.755556 5.688889 0 17.066667 5.688889 22.755556 5.688889v28.444444c0 17.066667 11.377778 28.444444 28.444444 28.444445s28.444444-11.377778 28.444445-28.444445v-34.133333c5.688889 0 17.066667 0 22.755555-5.688889l34.133334-17.066667c11.377778-5.688889 17.066667-17.066667 22.755555-34.133333 5.688889-11.377778 5.688889-28.444444 5.688889-45.511111 0-17.066667 0-28.444444-5.688889-39.822222z m-153.6-79.644445c-5.688889-5.688889-11.377778-5.688889-11.377778-11.377777-5.688889-5.688889-5.688889-11.377778-5.688889-17.066667 0-17.066667 5.688889-28.444444 11.377778-34.133333 5.688889-5.688889 11.377778-5.688889 17.066667-5.688889v85.333333c-5.688889-11.377778-11.377778-11.377778-11.377778-17.066667z m91.022222 164.977778c-5.688889 5.688889-11.377778 5.688889-22.755555 11.377778v-96.711111h5.688889c5.688889 0 11.377778 5.688889 17.066666 11.377778s11.377778 11.377778 11.377778 17.066666c5.688889 5.688889 5.688889 11.377778 5.688889 22.755556 0 17.066667-5.688889 28.444444-17.066667 34.133333zM512 967.111111c-250.311111 0-455.111111-204.8-455.111111-455.111111 0-17.066667 11.377778-28.444444 28.444444-28.444444s28.444444 11.377778 28.444445 28.444444c0 221.866667 176.355556 398.222222 398.222222 398.222222 17.066667 0 28.444444 11.377778 28.444444 28.444445s-11.377778 28.444444-28.444444 28.444444zM938.666667 540.444444c-17.066667 0-28.444444-11.377778-28.444445-28.444444 0-221.866667-176.355556-398.222222-398.222222-398.222222-17.066667 0-28.444444-11.377778-28.444444-28.444445S494.933333 56.888889 512 56.888889c250.311111 0 455.111111 204.8 455.111111 455.111111 0 17.066667-11.377778 28.444444-28.444444 28.444444z" fill="#2c2c2c" p-id="5596"></path></svg>